# File created by Blade
# Date/Time:  Thu Jan 22 15:33:01 2015
# Frame Rate: 120.000 fps
#------------------------------------------------------
:FULLY-SPECIFIED
:DEGREES
1470
root 5.065574 19.022759 6.234044 343.976327 -83.576712 -530.135029
RightUpLeg -112.837367 2.669006 4.657925
RightLeg 4.317587 -0.000000 -0.000000
RightFoot 26.096100 42.169715 -58.143199
RightToeBase -61.259639 -0.000000 0.000000
LeftUpLeg -112.236470 -9.103152 -10.462597
LeftLeg 8.933293 -0.000000 -0.000000
LeftFoot 36.488688 -17.018457 -3.278424
LeftToeBase 27.753863 -0.000000 -0.000000
Spine 31.058628 0.378279 0.578325
RightShoulder -166.369090 44.252289 172.320880
RightArm 164.488154 50.861863 103.892730
RightForeArm 57.186476 -0.000000 108.805956
RightHand 6.233454 -0.000000 2.469941
RightHandThumb1 -24.326973 -0.000000 -32.862282
LeftShoulder -13.450784 43.665613 18.339499
LeftArm 6.122456 62.643300 -64.872262
LeftForeArm -30.657481 -0.000000 107.109250
LeftHand -26.968641 -0.000000 -1.993235
LeftHandThumb1 -26.253704 0.000000 33.147579
Head 85.586374 0.887873 -52.697049
1471
root 5.029411 19.019374 6.238796 343.228612 -83.513963 -529.188467
RightUpLeg -112.883557 2.727909 4.831972
RightLeg 4.207450 -0.000000 -0.000000
RightFoot 25.622724 42.182245 -58.219308
RightToeBase -61.005591 -0.000000 0.000000
LeftUpLeg -112.226377 -9.199257 -10.907383
LeftLeg 8.856158 -0.000000 -0.000000
LeftFoot 36.501885 -16.909591 -3.336929
LeftToeBase 27.708702 -0.000000 -0.000000
Spine 30.958186 0.316708 0.459073
RightShoulder -166.420153 44.014647 172.177158
RightArm 164.300097 50.954180 103.699215
RightForeArm 57.069873 -0.000000 108.777058
RightHand 6.228619 -0.000000 2.505897
RightHandThumb1 -24.326973 -0.000000 -32.862282
LeftShoulder -13.451691 43.522065 18.368091
LeftArm 5.973398 62.712909 -65.054396
LeftForeArm -30.849820 0.000000 107.174378
LeftHand -27.146153 -0.000000 -1.772758
LeftHandThumb1 -26.253704 0.000000 33.147579
Head 85.451733 0.821435 -52.648548
1472
root 4.994803 19.015269 6.247670 342.572432 -83.455633 -528.320176
RightUpLeg -112.927977 2.783438 4.982744
RightLeg 4.095732 -0.000000 -0.000000
RightFoot 24.869573 42.328283 -58.646221
RightToeBase -60.908905 -0.000000 0.000000
LeftUpLeg -112.254309 -9.363730 -11.484795
LeftLeg 8.919601 -0.000000 -0.000000
LeftFoot 36.432988 -17.105529 -2.849971
LeftToeBase 27.952297 -0.000000 -0.000000
Spine 30.838851 0.259552 0.365569
RightShoulder -166.478560 43.773828 172.028801
RightArm 164.086292 51.016497 103.492764
RightForeArm 56.997517 -0.000000 108.725900
RightHand 6.190848 -0.000000 2.524952
RightHandThumb1 -24.326973 -0.000000 -32.862282
LeftShoulder -13.411056 43.426149 18.387609
LeftArm 5.804843 62.736393 -65.275212
LeftForeArm -31.005203 -0.000000 107.255041
LeftHand -27.353819 -0.000000 -1.544824
LeftHandThumb1 -26.253704 0.000000 33.147579
Head 85.332122 0.752023 -52.664548
1473
root 4.960340 19.011733 6.250759 341.712977 -83.397487 -527.245123
RightUpLeg -112.986887 2.875623 5.128541
RightLeg 4.030062 -0.000000 -0.000000
RightFoot 23.954941 42.681551 -59.441255
RightToeBase -60.925663 -0.000000 0.000000
LeftUpLeg -112.264539 -9.434545 -11.880140
LeftLeg 8.897532 -0.000000 -0.000000
LeftFoot 36.386420 -16.944757 -2.525817
LeftToeBase 27.965870 -0.000000 -0.000000
Spine 30.689685 0.552106 0.403283
RightShoulder -166.111652 43.601493 172.203676
RightArm 163.843568 51.058773 103.235255
RightForeArm 56.963868 -0.000000 108.657604
RightHand 6.124019 -0.000000 2.491331
RightHandThumb1 -24.326973 -0.000000 -32.862282
LeftShoulder -12.886097 43.029359 18.931838
LeftArm 5.528639 62.941541 -65.664278
LeftForeArm -31.256154 -0.000000 107.263016
LeftHand -27.546494 -0.000000 -1.285483
LeftHandThumb1 -26.253704 0.000000 33.147579
Head 85.563880 0.444867 -52.653086
1474
root 4.927460 19.007098 6.253036 340.824121 -83.405546 -526.187549
RightUpLeg -112.980489 3.005710 5.227090
RightLeg 3.983699 -0.000000 -0.000000
RightFoot 23.141465 43.073864 -60.209707
RightToeBase -60.951145 -0.000000 0.000000
LeftUpLeg -112.278844 -9.453009 -12.327626
LeftLeg 9.024562 -0.000000 -0.000000
LeftFoot 36.242351 -17.240056 -1.598234
LeftToeBase 28.032263 -0.000000 -0.000000
Spine 30.616070 0.633609 0.322848
RightShoulder -166.076445 43.418775 172.141758
RightArm 163.717873 51.120313 103.086855
RightForeArm 57.028784 -0.000000 108.597699
RightHand 6.008307 -0.000000 2.393922
RightHandThumb1 -24.326973 -0.000000 -32.862282
LeftShoulder -12.799699 42.880379 19.044456
LeftArm 5.423754 63.012129 -65.829243
LeftForeArm -31.455261 -0.000000 107.318471
LeftHand -27.703133 -0.000000 -1.030308
LeftHandThumb1 -26.253704 0.000000 33.147579
Head 85.508033 0.358149 -52.647114
1475
root 4.895148 19.001373 6.257764 339.720983 -83.386438 -524.923615
RightUpLeg -112.976568 3.097681 5.235975
RightLeg 3.976909 -0.000000 -0.000000
RightFoot 22.797695 43.331125 -60.433764
RightToeBase -61.184346 -0.000000 0.000000
LeftUpLeg -112.275477 -9.495399 -12.835574
LeftLeg 9.166152 -0.000000 -0.000000
LeftFoot 36.119414 -17.433151 -1.295427
LeftToeBase 28.207619 -0.000000 -0.000000
Spine 30.553644 0.620892 0.179536
RightShoulder -166.141295 43.245638 171.992950
RightArm 163.638322 51.212151 102.947390
RightForeArm 57.124999 -0.000000 108.554113
RightHand 5.844829 -0.000000 1.920157
RightHandThumb1 -24.326973 -0.000000 -32.862282
LeftShoulder -12.768064 42.779499 19.055885
LeftArm 5.198303 62.991658 -66.089287
LeftForeArm -31.688444 -0.000000 107.378630
LeftHand -27.905861 0.000000 -0.911828
LeftHandThumb1 -26.253704 0.000000 33.147579
Head 85.398718 0.314759 -52.940379
1476
root 4.865836 18.992328 6.265217 338.727589 -83.325304 -523.817824
RightUpLeg -112.898490 3.142593 5.247290
RightLeg 3.907485 -0.000000 -0.000000
RightFoot 22.692595 43.656968 -60.382450
RightToeBase -60.452893 -0.000000 0.000000
LeftUpLeg -112.211694 -9.588896 -13.468368
LeftLeg 9.368833 -0.000000 -0.000000
LeftFoot 36.032713 -17.817445 -1.063841
LeftToeBase 27.127857 -0.000000 -0.000000
Spine 30.544196 0.553188 0.038360
RightShoulder -166.233384 43.085023 171.882232
RightArm 163.501391 51.268064 102.799766
RightForeArm 57.147900 -0.000000 108.577728
RightHand 5.824547 -0.000000 1.712602
RightHandThumb1 -24.326973 -0.000000 -32.862282
LeftShoulder -12.779598 42.670779 19.035188
LeftArm 5.032118 63.017069 -66.296553
LeftForeArm -31.826042 0.000000 107.408529
LeftHand -28.070949 0.000000 -0.705318
LeftHandThumb1 -26.253704 0.000000 33.147579
Head 85.245583 0.293054 -53.000157
1477
root 4.834022 18.985427 6.274570 338.387268 -83.280616 -523.340641
RightUpLeg -112.884803 3.175042 5.313458
RightLeg 3.936881 -0.000000 -0.000000
RightFoot 22.653445 43.863559 -60.290947
RightToeBase -59.904985 -0.000000 0.000000
LeftUpLeg -112.202240 -9.718796 -13.975359
LeftLeg 9.568043 -0.000000 -0.000000
LeftFoot 36.076410 -18.264674 -1.057108
LeftToeBase 26.728947 -0.000000 -0.000000
Spine 30.504343 0.483408 0.004534
RightShoulder -166.290885 42.960994 171.761920
RightArm 163.379765 51.358217 102.641824
RightForeArm 57.183790 0.000000 108.616128
RightHand 5.883866 -0.000000 1.486837
RightHandThumb1 -24.326973 -0.000000 -32.862282
LeftShoulder -12.786579 42.538136 19.028073
LeftArm 4.929830 63.068338 -66.440121
LeftForeArm -31.980925 0.000000 107.413443
LeftHand -28.248181 0.000000 -0.566186
LeftHandThumb1 -26.253704 0.000000 33.147579
Head 85.089186 0.201708 -53.184218
1478
root 4.801393 18.981321 6.272325 337.493609 -83.245673 -522.282384
RightUpLeg -112.874031 3.234404 5.201122
RightLeg 3.916647 -0.000000 -0.000000
RightFoot 23.045750 43.847400 -59.762977
RightToeBase -59.603150 -0.000000 0.000000
LeftUpLeg -112.181889 -9.613745 -13.886956
LeftLeg 9.489836 -0.000000 -0.000000
LeftFoot 36.246390 -18.374508 -1.262542
LeftToeBase 27.265091 -0.000000 -0.000000
Spine 30.439490 0.467988 -0.151193
RightShoulder -166.348002 42.804467 171.677220
RightArm 163.239647 51.529008 102.475979
RightForeArm 57.130558 -0.000000 108.660284
RightHand 6.274798 -0.000000 2.041195
RightHandThumb1 -24.326973 -0.000000 -32.862282
LeftShoulder -12.789460 42.406918 19.085076
LeftArm 4.773962 63.109096 -66.632129
LeftForeArm -32.108124 -0.000000 107.407427
LeftHand -28.248425 -0.000000 -0.617811
LeftHandThumb1 -26.253704 0.000000 33.147579
Head 84.951660 0.101875 -53.184520
1479
root 4.771221 18.972693 6.274109 336.822606 -83.210256 -521.446486
RightUpLeg -112.863062 3.274994 5.083569
RightLeg 3.892253 -0.000000 -0.000000
RightFoot 23.618724 43.712229 -58.986708
RightToeBase -59.319589 -0.000000 0.000000
LeftUpLeg -112.185302 -9.632587 -14.116954
LeftLeg 9.563403 -0.000000 -0.000000
LeftFoot 36.440874 -18.709163 -1.464808
LeftToeBase 27.256405 -0.000000 -0.000000
Spine 30.349088 0.459351 -0.272467
RightShoulder -166.325224 42.931238 171.699943
RightArm 163.560017 51.657030 102.665280
RightForeArm 57.246616 -0.000000 108.672052
RightHand 6.303579 -0.000000 1.506691
RightHandThumb1 -24.326973 -0.000000 -32.862282
LeftShoulder -12.735791 42.322025 19.167832
LeftArm 4.656433 63.127382 -66.830658
LeftForeArm -32.275693 -0.000000 107.365635
LeftHand -28.419280 -0.000000 -0.452342
LeftHandThumb1 -26.253704 0.000000 33.147579
Head 84.914465 0.003078 -53.313625
1480
root 4.737778 18.963156 6.268167 336.165400 -83.180380 -520.655785
RightUpLeg -112.817426 3.342372 4.978124
RightLeg 3.882120 -0.000000 -0.000000
RightFoot 24.215048 43.481197 -58.167052
RightToeBase -59.042558 -0.000000 0.000000
LeftUpLeg -112.149738 -9.582621 -14.241589
LeftLeg 9.581751 -0.000000 -0.000000
LeftFoot 36.521612 -18.683571 -2.499498
LeftToeBase 27.694816 -0.000000 -0.000000
Spine 30.329988 0.485238 -0.390379
RightShoulder -166.333796 42.875343 171.710179
RightArm 163.521147 51.780806 102.556322
RightForeArm 57.271224 -0.000000 108.677682
RightHand 6.450860 -0.000000 1.476201
RightHandThumb1 -24.326973 -0.000000 -32.862282
LeftShoulder -12.714919 42.209789 19.229869
LeftArm 4.614023 63.151577 -66.900371
LeftForeArm -32.466223 0.000000 107.358511
LeftHand -28.590618 -0.000000 -0.338227
LeftHandThumb1 -26.253704 0.000000 33.147579
Head 84.845684 -0.125938 -53.277202
1481
root 4.702380 18.952289 6.268289 335.408322 -83.106671 -519.757491
RightUpLeg -112.758045 3.325392 4.725621
RightLeg 3.809130 -0.000000 -0.000000
RightFoot 24.858446 43.328506 -57.476185
RightToeBase -58.458680 -0.000000 0.000000
LeftUpLeg -112.106305 -9.524350 -14.225522
LeftLeg 9.539612 -0.000000 -0.000000
LeftFoot 36.654152 -18.435261 -3.446263
LeftToeBase 27.658185 -0.000000 -0.000000
Spine 30.304481 0.458098 -0.527471
RightShoulder -166.375607 42.691221 171.657600
RightArm 163.334197 51.940252 102.329587
RightForeArm 57.392686 -0.000000 108.632861
RightHand 6.172349 0.000000 0.684016
RightHandThumb1 -24.326973 -0.000000 -32.862282
LeftShoulder -12.717802 42.109352 19.266798
LeftArm 4.600920 63.187402 -66.951036
LeftForeArm -32.605391 -0.000000 107.352774
LeftHand -28.767201 -0.000000 -0.256063
LeftHandThumb1 -26.253704 0.000000 33.147579
Head 84.770596 -0.237437 -53.228055
1482
root 4.667280 18.939564 6.262271 334.919574 -83.057992 -519.162240
RightUpLeg -112.674597 3.373856 4.607001
RightLeg 3.775804 -0.000000 -0.000000
RightFoot 25.214136 43.230526 -56.857651
RightToeBase -56.964439 -0.000000 0.000000
LeftUpLeg -112.052883 -9.459999 -14.173834
LeftLeg 9.562830 -0.000000 -0.000000
LeftFoot 36.724175 -18.452601 -3.622382
LeftToeBase 27.893009 -0.000000 -0.000000
Spine 30.322257 0.436409 -0.648599
RightShoulder -166.448886 42.555166 171.626382
RightArm 163.199332 52.064904 102.148240
RightForeArm 57.418696 -0.000000 108.582853
RightHand 6.218855 0.000000 0.726463
RightHandThumb1 -24.326973 -0.000000 -32.862282
LeftShoulder -12.717202 42.002606 19.315125
LeftArm 4.526958 63.221520 -67.074546
LeftForeArm -32.774195 -0.000000 107.308543
LeftHand -28.798719 -0.000000 -0.208773
LeftHandThumb1 -26.253704 0.000000 33.147579
Head 84.688981 -0.335314 -53.142681
